<mxfile host="app.diagrams.net" agent="Mozilla/5.0 (Windows NT 10.0; Win64; x64) AppleWebKit/537.36 (KHTML, like Gecko) Chrome/140.0.0.0 Safari/537.36" version="28.2.3">
  <diagram name="Page-1" id="dGK4QoX8NdgRgmXIDvm1">
    <mxGraphModel dx="1892" dy="561" grid="1" gridSize="10" guides="1" tooltips="1" connect="1" arrows="1" fold="1" page="1" pageScale="1" pageWidth="850" pageHeight="1100" math="0" shadow="0">
      <root>
        <mxCell id="0" />
        <mxCell id="1" parent="0" />
        <mxCell id="ngnA0fH4JVxZqMYRnzff-1" value="&lt;b&gt;SVN&lt;/b&gt;" style="rounded=1;whiteSpace=wrap;html=1;fillColor=#dae8fc;gradientColor=#7ea6e0;strokeColor=#6c8ebf;" vertex="1" parent="1">
          <mxGeometry x="320" y="40" width="150" height="80" as="geometry" />
        </mxCell>
        <mxCell id="ngnA0fH4JVxZqMYRnzff-2" value="" style="sketch=0;aspect=fixed;pointerEvents=1;shadow=0;dashed=0;html=1;strokeColor=none;labelPosition=center;verticalLabelPosition=bottom;verticalAlign=top;align=center;fillColor=#00188D;shape=mxgraph.azure.laptop" vertex="1" parent="1">
          <mxGeometry x="80" y="270" width="100" height="60" as="geometry" />
        </mxCell>
        <mxCell id="ngnA0fH4JVxZqMYRnzff-3" value="" style="sketch=0;aspect=fixed;pointerEvents=1;shadow=0;dashed=0;html=1;strokeColor=none;labelPosition=center;verticalLabelPosition=bottom;verticalAlign=top;align=center;fillColor=#00188D;shape=mxgraph.azure.laptop" vertex="1" parent="1">
          <mxGeometry x="250" y="270" width="100" height="60" as="geometry" />
        </mxCell>
        <mxCell id="ngnA0fH4JVxZqMYRnzff-4" value="" style="sketch=0;aspect=fixed;pointerEvents=1;shadow=0;dashed=0;html=1;strokeColor=none;labelPosition=center;verticalLabelPosition=bottom;verticalAlign=top;align=center;fillColor=#00188D;shape=mxgraph.azure.laptop" vertex="1" parent="1">
          <mxGeometry x="420" y="270" width="100" height="60" as="geometry" />
        </mxCell>
        <mxCell id="ngnA0fH4JVxZqMYRnzff-9" style="edgeStyle=orthogonalEdgeStyle;rounded=0;orthogonalLoop=1;jettySize=auto;html=1;entryX=1;entryY=0.5;entryDx=0;entryDy=0;exitX=0.436;exitY=0.01;exitDx=0;exitDy=0;exitPerimeter=0;" edge="1" parent="1" source="ngnA0fH4JVxZqMYRnzff-5" target="ngnA0fH4JVxZqMYRnzff-1">
          <mxGeometry relative="1" as="geometry" />
        </mxCell>
        <mxCell id="ngnA0fH4JVxZqMYRnzff-5" value="" style="sketch=0;aspect=fixed;pointerEvents=1;shadow=0;dashed=0;html=1;strokeColor=none;labelPosition=center;verticalLabelPosition=bottom;verticalAlign=top;align=center;fillColor=#00188D;shape=mxgraph.azure.laptop" vertex="1" parent="1">
          <mxGeometry x="610" y="270" width="100" height="60" as="geometry" />
        </mxCell>
        <mxCell id="ngnA0fH4JVxZqMYRnzff-6" style="edgeStyle=orthogonalEdgeStyle;rounded=0;orthogonalLoop=1;jettySize=auto;html=1;entryX=0.024;entryY=0.362;entryDx=0;entryDy=0;entryPerimeter=0;" edge="1" parent="1" source="ngnA0fH4JVxZqMYRnzff-2" target="ngnA0fH4JVxZqMYRnzff-1">
          <mxGeometry relative="1" as="geometry">
            <Array as="points">
              <mxPoint x="130" y="69" />
            </Array>
          </mxGeometry>
        </mxCell>
        <mxCell id="ngnA0fH4JVxZqMYRnzff-7" style="edgeStyle=orthogonalEdgeStyle;rounded=0;orthogonalLoop=1;jettySize=auto;html=1;entryX=0.445;entryY=1.032;entryDx=0;entryDy=0;entryPerimeter=0;" edge="1" parent="1" source="ngnA0fH4JVxZqMYRnzff-3" target="ngnA0fH4JVxZqMYRnzff-1">
          <mxGeometry relative="1" as="geometry" />
        </mxCell>
        <mxCell id="ngnA0fH4JVxZqMYRnzff-8" style="edgeStyle=orthogonalEdgeStyle;rounded=0;orthogonalLoop=1;jettySize=auto;html=1;entryX=0.445;entryY=1.042;entryDx=0;entryDy=0;entryPerimeter=0;" edge="1" parent="1" source="ngnA0fH4JVxZqMYRnzff-4" target="ngnA0fH4JVxZqMYRnzff-1">
          <mxGeometry relative="1" as="geometry" />
        </mxCell>
        <mxCell id="ngnA0fH4JVxZqMYRnzff-10" value="&lt;b&gt;&lt;font face=&quot;Comic Sans MS&quot;&gt;Centralised&lt;/font&gt;&lt;/b&gt;" style="text;html=1;align=center;verticalAlign=middle;resizable=0;points=[];autosize=1;strokeColor=none;fillColor=none;" vertex="1" parent="1">
          <mxGeometry x="350" y="10" width="90" height="30" as="geometry" />
        </mxCell>
        <mxCell id="ngnA0fH4JVxZqMYRnzff-22" style="edgeStyle=orthogonalEdgeStyle;rounded=0;orthogonalLoop=1;jettySize=auto;html=1;" edge="1" parent="1" source="ngnA0fH4JVxZqMYRnzff-11">
          <mxGeometry relative="1" as="geometry">
            <mxPoint x="590" y="670" as="targetPoint" />
          </mxGeometry>
        </mxCell>
        <mxCell id="ngnA0fH4JVxZqMYRnzff-11" value="" style="verticalLabelPosition=bottom;html=1;verticalAlign=top;align=center;strokeColor=none;fillColor=#00BEF2;shape=mxgraph.azure.github_code;pointerEvents=1;" vertex="1" parent="1">
          <mxGeometry x="350" y="410" width="90" height="90" as="geometry" />
        </mxCell>
        <mxCell id="ngnA0fH4JVxZqMYRnzff-12" value="&lt;b&gt;Remote/Central Repo&lt;/b&gt;" style="text;html=1;align=center;verticalAlign=middle;resizable=0;points=[];autosize=1;strokeColor=none;fillColor=none;" vertex="1" parent="1">
          <mxGeometry x="325" y="380" width="150" height="30" as="geometry" />
        </mxCell>
        <mxCell id="ngnA0fH4JVxZqMYRnzff-13" value="" style="sketch=0;aspect=fixed;pointerEvents=1;shadow=0;dashed=0;html=1;strokeColor=none;labelPosition=center;verticalLabelPosition=bottom;verticalAlign=top;align=center;fillColor=#00188D;shape=mxgraph.azure.laptop" vertex="1" parent="1">
          <mxGeometry x="-80" y="670" width="466.67" height="280" as="geometry" />
        </mxCell>
        <mxCell id="ngnA0fH4JVxZqMYRnzff-17" style="edgeStyle=orthogonalEdgeStyle;rounded=0;orthogonalLoop=1;jettySize=auto;html=1;entryX=0;entryY=0.5;entryDx=0;entryDy=0;" edge="1" parent="1" source="ngnA0fH4JVxZqMYRnzff-14" target="ngnA0fH4JVxZqMYRnzff-15">
          <mxGeometry relative="1" as="geometry">
            <Array as="points">
              <mxPoint x="40" y="770" />
            </Array>
          </mxGeometry>
        </mxCell>
        <mxCell id="ngnA0fH4JVxZqMYRnzff-14" value="&lt;b&gt;Code&amp;nbsp;&lt;/b&gt;&lt;div&gt;&lt;b&gt;Workspace&lt;/b&gt;&lt;/div&gt;" style="rounded=0;whiteSpace=wrap;html=1;fillColor=#e6d0de;gradientColor=#d5739d;strokeColor=#996185;" vertex="1" parent="1">
          <mxGeometry x="-5" y="810" width="125" height="60" as="geometry" />
        </mxCell>
        <mxCell id="ngnA0fH4JVxZqMYRnzff-18" style="edgeStyle=orthogonalEdgeStyle;rounded=0;orthogonalLoop=1;jettySize=auto;html=1;" edge="1" parent="1" source="ngnA0fH4JVxZqMYRnzff-15" target="ngnA0fH4JVxZqMYRnzff-16">
          <mxGeometry relative="1" as="geometry" />
        </mxCell>
        <mxCell id="ngnA0fH4JVxZqMYRnzff-15" value="&lt;b&gt;Staging Area&lt;/b&gt;" style="rounded=1;whiteSpace=wrap;html=1;fillColor=#f8cecc;gradientColor=#ea6b66;strokeColor=#b85450;" vertex="1" parent="1">
          <mxGeometry x="90" y="750" width="90" height="40" as="geometry" />
        </mxCell>
        <mxCell id="ngnA0fH4JVxZqMYRnzff-16" value="&lt;b&gt;Local repo&lt;/b&gt;" style="rounded=1;whiteSpace=wrap;html=1;fillColor=#d5e8d4;gradientColor=#97d077;strokeColor=#82b366;" vertex="1" parent="1">
          <mxGeometry x="190" y="700" width="90" height="40" as="geometry" />
        </mxCell>
        <mxCell id="ngnA0fH4JVxZqMYRnzff-19" style="edgeStyle=orthogonalEdgeStyle;rounded=0;orthogonalLoop=1;jettySize=auto;html=1;entryX=-0.013;entryY=0.398;entryDx=0;entryDy=0;entryPerimeter=0;" edge="1" parent="1" source="ngnA0fH4JVxZqMYRnzff-16" target="ngnA0fH4JVxZqMYRnzff-11">
          <mxGeometry relative="1" as="geometry">
            <Array as="points">
              <mxPoint x="230" y="446" />
            </Array>
          </mxGeometry>
        </mxCell>
        <mxCell id="ngnA0fH4JVxZqMYRnzff-20" value="" style="rounded=0;whiteSpace=wrap;html=1;fillColor=#dae8fc;gradientColor=#7ea6e0;strokeColor=#6c8ebf;" vertex="1" parent="1">
          <mxGeometry x="520" y="675" width="200" height="270" as="geometry" />
        </mxCell>
        <mxCell id="ngnA0fH4JVxZqMYRnzff-21" value="" style="image;html=1;image=img/lib/clip_art/computers/Server_128x128.png" vertex="1" parent="1">
          <mxGeometry x="640" y="660" width="80" height="80" as="geometry" />
        </mxCell>
        <mxCell id="ngnA0fH4JVxZqMYRnzff-23" value="&lt;b&gt;git clone&lt;/b&gt;" style="text;html=1;align=center;verticalAlign=middle;resizable=0;points=[];autosize=1;strokeColor=none;fillColor=none;" vertex="1" parent="1">
          <mxGeometry x="520" y="620" width="70" height="30" as="geometry" />
        </mxCell>
        <mxCell id="ngnA0fH4JVxZqMYRnzff-24" value="&lt;b&gt;git pull&lt;/b&gt;" style="text;html=1;align=center;verticalAlign=middle;resizable=0;points=[];autosize=1;strokeColor=none;fillColor=none;" vertex="1" parent="1">
          <mxGeometry x="520" y="640" width="60" height="30" as="geometry" />
        </mxCell>
        <mxCell id="ngnA0fH4JVxZqMYRnzff-25" value="" style="shape=image;verticalLabelPosition=bottom;labelBackgroundColor=default;verticalAlign=top;aspect=fixed;imageAspect=0;image=data:image/png,iVBORw0KGgoAAAANSUhEUgAAANAAAADYCAYAAACa920ZAAAAAXNSR0IArs4c6QAAAARnQU1BAACxjwv8YQUAAAAJcEhZcwAADsMAAA7DAcdvqGQAABSiSURBVHhe7d19bFVlngfw7z29ffFa2ynlXd4qBQotCALKraZMkNmu7rKITHZc6cYZBmG1aEVwHYgxWWNgGEHpOHRCJeOSVLIhKyOykbA6REmWOsswiLSllNJqgQLGbqVT7/Tl9pz94zzn9vJQel/O+3N+n4RkynOI09777fP8fvc5z/FNnDhR2bp1K8rKykAIia2mpgZbtmyBoijwffjhh8qyZcv4awghwzh8+DDKy8vhUxRF4QcJIbHV1NRQgAjRQ+L/ghASPwoQITpQgAjRgQJEiA4UIEJ0oAARogMFiBAdKECE6EABIqaqbe3Czo+voP1GHz8kBNqJQExzsq0bJb89DygAfMDKgruw9sExKMnP5i91LQoQMcXJtm6U7GlS1ziSD5AVQAYwoCAnOxUbF+Tin+4fhfHZafw/dRUKEDFcbWsXllRfAPw+NTw8WQHC6p/SaZl4cck4185KFCBiqJjh4ckK0CMjZ0QaXikehb+bMwKTc9L5qxyLAkQME6l54g1PNFkB+hUg1YeV+Zn46aIxWDrD+bMSBYgY4paaJ1kyezv2u6NWogAR3SLLtjSDPxXRaqWeAZTOzML6xeNQfM9dCKQa/N/RgQJEdEm45klWVK20cUEufrxgpCNqJQoQSVpk2eY3MTg8bVaSfCidHMC64jF4pCiHv8oyFCCSFMtmntvRaqU+GchIwesPjbZlVqIAkYTZHh4e97nSuuIxWDwj25JaiQJEEqKrVW0FWQH6ZOT8IA3Pzc3BT+4fhXtyM/irDEMBInGzpeZJljYrASjNu9O0WokCROLiuGVbItisBMmHV0tGGzorUYBITK4OTzRtVpIVlE41plaiAJFhGbbDwGm4Wmn5vFzMGhvgr4qJAkRuS9jwRIuqlYon3IFNi8clVCtRgMiQalu7sGRvszsaBkbRaiW/hFcfGhVXrUQBIrcQpuZJlsxu/gvLKJ2aiTdXTrltkJKvnoiQTrZ1qzNPmuTN8IAtV/0+ICMFRy90o+XbXv6KCAoQiaht7VI/JKV3xaAYP4sYw8QrPL9sSxIFiKjLNgpPUihAHnfT9hwKT8IoQB52U81D4UkKBcijqOYxBgXIg6jmMQ4FyGNqW7uo5jEQBchDaNlmPAqQR0R2GHhpb5sFKEAeQK1q81CABBepeeiVNgX9WAUWqXnocx7TUIAERa1qa1CABEQ1j3UoQIKJbM+h8FiCAiSQmz7nIZagAAmCah57WBKgrzt78fT+Zozf9qWwjzu3E23PsY+pAWrp6EHFgRYUbD2LmvoudIbCmPrLs/jk/A3+UpIk2p5jL1MCpAWn8M0GVJ/5DgikDL7Afh+W/e4Cdn58hf9nJEE3LduILQwN0NedvTcHR8KtL66knnbyyidX8Vh1I0L98s3jJC6RVrWXT89xAEMCpNU4BVvPqsHxs2OBhnthM1Jw9OsQcrd9iYZrIX6UDINOz3EOXS9BpMb5pVrjRJZq8fL7gH4Z8yvP4eDpDn6UDIFqHmdJKkC31DgZCQYnGquLVv1HK7Yc+oofJVGoVe08CQVIW6oV7qhH9enOoWucZLC66K3aDjy8uwGdoTB/hedRzeNMcQUousapqe9SX0QzXsh0CSfaezB++1mcbOvmRz3rps95iKMMG6BQv6zWONvrkqtxkuH3AbKCkt2NeO+P3/CjnnPTLQnEcYZ9WXr7ZbXGSWVdNatIPiBNwpqDbag40MKPegYd9O58wwYIMKjGSQari6pPdyJYWe+5LUDUqnYH5788aRK++LYXU39Vh9rWLn5USNSqdg/nBwhsNpKAJXsuoOqzq/yoUKhV7S7uCBBYiFJ92PjRFZTta+JHhUB3krqPewKEwbro/aZu3PHaF2jp6OGvcK2bah4Kj2u4K0AatgWocFcDjtR18qOuQzWPe7kzQBj8Lf14TQu2HbnEj7oG1Tzu5t4AgYUoXcJrn1535a0Rwt9JKivqnxQBvzfG3QHSZKTgaOv3yN32Jc5cdscWIOGXbT0DKB6bgfoXZqlfywp/hRDECBDUz4vQL2PR7vOO3wIk9J2ksgL0DGBD8Uj8oXwWxmalAQNihgdCBQhsSef3Yc3BNrz8e2feGiF0q1pWgD4Z7z2Rh63LpwBsO5jIxAoQBlvdv/5jB4KV9Y66NULoVnVYQU7Aj8ZfzMbj83L5UWGJFyBNuroFaPy2Lx2xBUjomqdnAGWFWWjeVITJOen8qNDEDRAGf8sv2XMB7564zo9aRthWNat3qpZPxDtP5iOQKvbbaSjif8eSugXo2UOX8PT+Zn7UdMLWPGG1MXC8vAA/Kx7Dj3qG+AHCYF1Uc/aGpaejClvz9MoonRxA++Y5WDgpkx/1FG8ESJMmqaej7qgz/XRUIWseWQFCA3h18Wh8sLYAOQE/f4XnWBugMPtk2k7szbzs3WbTTkcVsuaRFSCs4OBTU7H5kYn8qGdZF6Cwgq1/M079304IUbpkyumoQm7P6ZORl+VH/aZCPFKUw496moUBkvFQ3l04VV6gfm13iDB4Omr+jjpDTkcVbtnGumxr5+Wg4aU5uCc3g7/C86wLEIC/9g1g1tgAPl83Xf0LJ4TI70NnKIz5bzfqOh1VuO05bMlWtXwiKv/xHn6UMJYGSHPvhEw1RKwVajtJvWU82dNRhTv0MKwAqRI+L5/h6RZ1PGwJEFiITlXMBPpkZ8xErNX91olvseQ38Z+OKtzpOT0DKJ0cQMfmObh3grdb1PGw9WWfNTaAz8tnqF84IURQ66Laqz0Yv6Mu5umoQtU8rN55fek4fLC2wJO7CpJh+08pspyDg0LEbhkvqbr9rRFCtarZz/3w6mnY+KO7+VEyDNsDBG05V17gjM+JNGwL0FCnowpV87AW9cVNRVg6I5sfJTE4IkBgy7lTFTMB2UEzEauLqv/ciVlvqFuATrZ1qzWP27ttbMn2/P25aHhpDsZnp/FXkDg4JkDQaqJnHLacg3prRGtXGFMrG1Dy781ihCes4L0n8rB9hXrjG0mOowKE6JrISTMR2GzUL6t/3LxsYy3qUxUzPXXjm1kcFyBoNdFzDquJoH1e5OLw9Axg5fRMdGyeg1ljA/woSYIjAwSntrjditU7Ox+9GzVPTacWtYEc/ZN0ZIvbbcIKIPlw9OlpeHYx28xLDOPoACE6RP0UoIT1ypg7Oh0XXyxEST61qM3g+ABBq4lecNC2H6djS7YNwVzUVhRSi9pErggQqCaKH/vZRJ/NRszjmgCBaqLY2K6CU+UF1KK2iKsCBKdu+7EbW7KtLLgLf3qhiFrUFnJdgBC97Qc0E2m7CqhFbQ/X/rQdd2erHdiugmNrqUVtF9cGCE68s9VKPQMIjstA+6YiBPOy+FFiEVcHCNF3tvZ6pMXN6p1XfzgGx9bPorPZbOb6AEFbzq33QIubfW8H/5nOZnMKIQIEL7S4WYu68UU6m81JhAkQ+JpIlBDJ6nG6ZbOz8acXvPf4EKcTKkCIrolECBFrUe/98STPPj7E6YR8RYTY9sOe+Hb8mRlY9cBofpQ4hJABQvSOhVTJfSGSFaycnon6ilmef3yI0wkbIAD4vk927ROiu3uNO/CemEfYAEVOz5HVG8pcRfLh6NchjN9+NubhjsReQgbozGUBHqvo9wGygpLdjbY+35UMT7gAtXT0YNGeJvU7c2t4NJIPSJNse74riU2oALV09KBwV4P6hdvDo2GHO9bUd+GO175AS0cPfwWxkTAB+rqzF4W7G9UvRAlPNHZed+Eb9bqeY0SMJUSA2m/0oeDtc+4/9DAWdl53ss8xIsZzfYA6Q2EsqGoUPzwatqR7q7YDwcr6uJ9jRMzh6gC13+hDYSV7GJYXwhMtXcIX3/Zi/LYvcbz5Bj9KLOLaAHWGwlha3YjObg+GR8O+79K9zaj67Co/SizgygCF+mU8uLsBrd+F3f+kBL0kH5AuYeNHV1C2rwmhftrBYCXXBSjUL+PhqnMUHl5GCt5v6kb+jjo0XAvxo8QkrgpQqF/G3+9pxBff9FJ4huL3oTMUxvxd5277aEpiLFcFaFl1I2qv9lB4hsNa3Wv+sw0v//4rWtKZzDUBeqy6EScu/5XCEw/JBwRS8Ov/7cDDVefQfqOPv4IYxPEBCvXLeKy6EUdbv1cf6kvil6a2uqduO4tPzlOr2wyOf0eu3d+Moy0UnqSxJd2yvRew8+Mr/CjRydHvyrJ9TXj/3F+AdEf/33Q+tqR75Q/X8Fh1I+1eMJBj35kVB1rwfkMXhcdI6ZJ6ox61ug3jyHdnxYEWVJ/6PyAjhR+yDzshB7LLT/thu7rn72ygVrcBHBegLYe+cmZ4+mTs/YcJOLY6f/Dv3Iot6dYcbEPFgRZqdevgqABtOfQV3jrxrbPCwx7Se7y8AKseGI1gXpYaon6Xz0RQdy9Un+7Egl111OpOkmMCtO3IJeeFp2cApZMDaH959k3HSwXzsnD82RliPLM1TUJrVxhTf1WHI3Wd/CiJwREB2nbkEl779LpzwiMPPgHhg7UFQz4BYeGkTBwvLwBkly/nwJZ0EvD4vovYduQSP0qGYXuAdn58xXnhifMJCAsnZeLYmnxxQhRIwWufXqdWdwJsDVDVZ1fxyn9fdU54+mTkBBJ7AkIwLwvH100XYzkHtS7SWt10Jl1stgXo3RPXsfGjK0DAAeFhS7ay2dlo3zwn4ScgRJZzIjQWMNjqLnm7kW7Ui8GWAL174jqePXTJGTMP+3ynavlEvPMka1EnYeGkTBxbN039QoQQsSXdxv+6gqf3N1Or+zYsDVB2RgoOnu5Qw+OEvW1ai/qZGfhZ8Rh+NGGRFrcINZEmkIKaszewYFcdnUk3BOvexWkSfnfiG6w68JUaHrvPMeiV1Yf0ci1qvYSriTDY6i7cQWfS8awLkORD9dnv7A+P1qJePNq0h/RGaiIRHvKlkXyA34dV++lMumjWBQjsRbATq3fiaVHrtXBSJo6tFagmwmBd9FZtBx7e3UC7FywPkJ1Yi/pUxcy4W9R6RWoikZZzUHd1n2jvwdQ361Hb2sWPeor4AWJLtpUFd6F98xzMGhvgrzBVMC9LXc6JFiL2+JUlVU2evlFP7ADJ6i7qquUTUfPUdH7UMgsnZeLYv0wXqzuHwSXdK59cRdm+Jk/uXhA3QGEFSJVw9OlphrSo9QrmZYmz7YfHzqQrrGzw3I16YgaoV8bc0elo31SEkvxsftQ2kRCJtpxD1Jl0lec81eoWK0Cs3tkQzEVtRaEpLWq9IjWRSC1uTVSru+JACwAgPVWstxhPnO+OvRnfeyIPW5dP4UcdRcgWt4bVRdV/7kSwsh4XroeAFJs/vjCRGAEKK2qLurwAj8/L5UcdKdLiFnEmwuDjVxa9cwEYcOGT0uPk7gBpLerpmba0qPUK5mXh+DOC3Nk6FEltdYvMvQGS1V0FOx+929YWtV7Ctrg1gs48GncGSFaXBEd/no9nF4/jR11H6Ba34NwXoF4Zc0em4+KLhY5qUesldItbYO4JENeiHp+dxl/hesJu+xGYOwLE6h03tKj1Er4mEozzA6S1qCtmuqZFrVdkOSdqi1sgsQPUJ9vXSWEt6uZNRa5rUeslfItbEMMGKD1VwoZFuZEllGUvJKt3tBZ1QPDtILcj5J2tghn2nRlIlbB1+RRc3FSEDfePUNflYZNfSHbQx+HV04RoUesl9LYfAQwbIM347DQ1SP/KghQaMOe3IttFffHFQiydIU6LWq/Ith9Rzp0TSFwB0mhBav+3uXh+wQg1REYEiS3Znn9A3Ba1XkGRDrQXSEIB0uQE/Ni+Ygou/mK2OiOBLb2SeWFlBZCBvY9PwvYVYreo9RLqQHtBJBUgTWRpp9VI2owUL61F/Zz67B0Sm1AH2gtAV4A0kSBpM1I8NRJ79o4XW9R60bYf5zAkQJpbaiQMsbSTFaBXxutLx+GDtQWebVHrFdn2Q40FW5ny7o3USHz7m7Woj67Jx8Yf3c3/M5Ig4Q60dyGfoiim/+Tbb/Sh8lg7jrd9j/d/Oo26bAarbe3Ckr3N6q9Du3aNiKpnAIdXT7vtxyqWBIiY72RbN0p2N9p/9rhoYgTIlCUcsR61uO1BARJIpMUNCpFVKECCoW0/1qIACYi2/ViHAiQourPVGhQggdFpP+ajAAmOtv2YiwLkAUIfaG8zCpBH0J2t5qAAeYjwB9rbgALkMXTaj7EoQB4UaXHTTKQbBcijgnlZak1ELW5dKEAeRi1u/ShAHkcH2utDASJYOCkTnz9XoH5BIUoIBYgAAO6dkInP17En/VGI4kYBIhH3TsjEKdqxMEhW1KXtMOiWbnKLhmshzH+7Uf316rXbw+XBsw1L8+7EuuIxeKQoh78qggJEhnTmcjcW7WlSv/BCiLTZ5k4/Xl2Yi+XzcuM6r5ACRG7rzOVuLPptk7gzkaweK40+GcHJAbz0w3FYPCM7obMKKUBkWA3XQphfeQ7w+8QJkayot7yn+rBhwQiseWgs7snN4K+KCwWIxCTEck6rbWQFwYkB/HzhSKy4b2RCs81QKEAkLq4NUdRs8/x9I/DkwpG4d0Imf1XSKEAkbmcud2PRb84D6fp+a5suqrbJGZGGN5aMxaOzRyAn4Oev1I0CRBLi6JooarYpm5mF1cHRCOZl8VcZigJEEua45VxYAcIy8kamYf39o/DY3FzLzl+nAJGk2B4irSkQVlA27weWzDZDoQCRpFm+nNO2F7EPPF8PjsLqB8eYUtvEiwJEdGm4FsL83Y3qF2aFSJtt/D6UTgxg/eJxt31agtUoQEQ305ZzUdtrXg+Owor7cpP+wNMsFCBiiDOXu7Fo93n1+UR6RLWgi6cEsGlx4ttrrEQBIoZpuBbC/F3ngNQkaiKtBZ0uYcN9Obq211iJAkQMldByTpttBhQEJ9yB9Q+Owd8W5Th2thkKBYgYLmaItNomTcKGBSPwk/nGbq+xEgWImCJSE2kt7iG21xixmdNuFCBimsjnRLICpEkom5mF9SVjXTvbDIUCREx15nI3/ufiXyzdXmMlChAhOrh7AUqIzShAhOhAASJEBwoQITpQgAjRgQJEiA4UIEJ0oAARogMFiBAd/h8oU7iyOopS9gAAAABJRU5ErkJggg==;" vertex="1" parent="1">
          <mxGeometry x="90" y="810" width="29.85" height="31" as="geometry" />
        </mxCell>
      </root>
    </mxGraphModel>
  </diagram>
</mxfile>
